<?xml version="1.0" encoding="utf-8"?>
<!-- Generator: Adobe Illustrator 24.0.0, SVG Export Plug-In . SVG Version: 6.00 Build 0)  -->
<svg version="1.1" id="Layer_1" xmlns="http://www.w3.org/2000/svg" xmlns:xlink="http://www.w3.org/1999/xlink" x="0px" y="0px"
	 viewBox="0 0 26 26" style="enable-background:new 0 0 26 26;" xml:space="preserve">
<style type="text/css">
	.st0{fill:url(#SVGID_1_);}
</style>
<linearGradient id="SVGID_1_" gradientUnits="userSpaceOnUse" x1="4.9055" y1="16.1888" x2="20.2573" y2="9.9295" gradientTransform="matrix(1 0 0 -1 0 28)">
	<stop  offset="0" style="stop-color:#8437FA"/>
	<stop  offset="1" style="stop-color:#2FC0E0"/>
</linearGradient>
<path class="st0" d="M19.3,14.5c-0.6-0.3-1.1-0.6-1.8-1c0.2-0.1,0.3-0.1,0.4-0.2c0.7-0.3,1.4-0.6,2-1.1c0.9-0.7,1.5-1.7,1.5-2.8
	c0.1-1.5-0.7-2.7-2-3.5c-1.3-0.8-2.7-1.5-4.1-2.3c-1.8-1-3.7-2.1-5.5-3.1C9.2,0.1,8.5,0,7.6,0C6.1,0.1,4.9,1.3,4.9,2.8
	c0,6.8,0,13.6,0,20.4c0,0.3,0,0.5,0.1,0.8c0.5,1.6,2.1,2.4,3.7,1.8c2.4-1,4.8-2,7.2-3c1.1-0.5,2.3-0.9,3.3-1.4
	c1.5-0.7,2.4-1.9,2.3-3.6C21.4,16.3,20.5,15.2,19.3,14.5z M7.8,5.5c0-0.4,0-0.8,0-1.2s0-0.8,0-1.2c0-0.3,0.1-0.4,0.4-0.3
	C8.4,3,8.6,3.2,8.8,3.3c3,1.7,6,3.4,9,5.1c0.4,0.2,0.8,0.5,0.7,1c0,0.5-0.4,0.8-0.8,0.9c-1.1,0.5-2.2,0.9-3.3,1.4
	c-0.1,0.1-0.2,0.1-0.4,0c-0.3-0.2-0.6-0.3-0.9-0.5c-1.3-0.7-2.6-1.5-4-2.2C8.8,8.7,8.4,8.5,8,8.2C7.8,8.1,7.8,8,7.8,7.9
	C7.8,7.1,7.8,6.3,7.8,5.5z M10.8,13.1c-1,0.4-2,0.8-3,1.2c0-1,0-1.9,0-2.9C8.8,12.1,9.8,12.6,10.8,13.1z M18.2,18.6
	c-0.2,0.1-0.3,0.2-0.5,0.3c-3.2,1.3-6.3,2.6-9.5,3.9C7.8,23,7.8,23,7.8,22.6c0-0.8,0-1.6,0-2.3c0-0.8,0-1.6,0-2.4
	c0-0.2,0.1-0.3,0.3-0.4c1.9-0.8,3.8-1.6,5.8-2.4c0.2-0.1,0.3-0.1,0.5,0c1.2,0.7,2.4,1.3,3.5,2c0.1,0.1,0.2,0.1,0.3,0.2
	C18.7,17.6,18.7,18.2,18.2,18.6z"/>
</svg>
